<?xml version="1.0" standalone="no"?>
<svg xmlns:xlink="http://www.w3.org/1999/xlink" id="wave" style="transform:rotate(0deg); transition: 0.3s" viewBox="0 0 1440 360" version="1.1" xmlns="http://www.w3.org/2000/svg"><defs><linearGradient id="sw-gradient-0" x1="0" x2="0" y1="1" y2="0"><stop stop-color="rgba(33, 66, 35, 1)" offset="0%"/><stop stop-color="rgba(123.718, 150.588, 122.904, 1)" offset="100%"/></linearGradient></defs><path style="transform:translate(0, 0px); opacity:1" fill="url(#sw-gradient-0)" d="M0,144L48,168C96,192,192,240,288,234C384,228,480,168,576,150C672,132,768,156,864,174C960,192,1056,204,1152,174C1248,144,1344,72,1440,66C1536,60,1632,120,1728,138C1824,156,1920,132,2016,132C2112,132,2208,156,2304,180C2400,204,2496,228,2592,246C2688,264,2784,276,2880,270C2976,264,3072,240,3168,228C3264,216,3360,216,3456,204C3552,192,3648,168,3744,174C3840,180,3936,216,4032,210C4128,204,4224,156,4320,162C4416,168,4512,228,4608,258C4704,288,4800,288,4896,264C4992,240,5088,192,5184,174C5280,156,5376,168,5472,198C5568,228,5664,276,5760,282C5856,288,5952,252,6048,240C6144,228,6240,240,6336,216C6432,192,6528,132,6624,120C6720,108,6816,144,6864,162L6912,180L6912,360L6864,360C6816,360,6720,360,6624,360C6528,360,6432,360,6336,360C6240,360,6144,360,6048,360C5952,360,5856,360,5760,360C5664,360,5568,360,5472,360C5376,360,5280,360,5184,360C5088,360,4992,360,4896,360C4800,360,4704,360,4608,360C4512,360,4416,360,4320,360C4224,360,4128,360,4032,360C3936,360,3840,360,3744,360C3648,360,3552,360,3456,360C3360,360,3264,360,3168,360C3072,360,2976,360,2880,360C2784,360,2688,360,2592,360C2496,360,2400,360,2304,360C2208,360,2112,360,2016,360C1920,360,1824,360,1728,360C1632,360,1536,360,1440,360C1344,360,1248,360,1152,360C1056,360,960,360,864,360C768,360,672,360,576,360C480,360,384,360,288,360C192,360,96,360,48,360L0,360Z"/></svg>